# Blender 3.5.0
# www.blender.org
mtllib player_Head.mtl
o 立方体.002
v -0.728239 0.271761 0.728239
v -0.728239 1.728239 0.728239
v -0.728239 0.271761 -0.728239
v -0.728239 1.728239 -0.728239
v 0.728239 0.271761 0.728239
v 0.728239 1.728239 0.728239
v 0.728239 0.271761 -0.728239
v 0.728239 1.728239 -0.728239
vn -1.0000 -0.0000 -0.0000
vn -0.0000 -0.0000 -1.0000
vn 1.0000 -0.0000 -0.0000
vn -0.0000 -0.0000 1.0000
vn -0.0000 -1.0000 -0.0000
vn -0.0000 1.0000 -0.0000
vt 0.407420 0.595283
vt 0.006018 0.791614
vt 0.005899 0.790933
vt 0.407420 0.794541
vt 0.006018 0.990872
vt 0.606678 0.793305
vt 0.606678 0.793305
vt 0.005899 0.591674
vt 0.208162 0.595283
vt 0.208162 0.794541
vt 0.606678 0.992563
vt 0.606678 0.594047
vt 0.205276 0.791614
vt 0.208162 0.794541
vt 0.205157 0.790933
vt 0.208162 0.993799
vt 0.205276 0.990872
vt 0.407420 0.793305
vt 0.407420 0.794541
vt 0.407420 0.793305
vt 0.205157 0.591674
vt 0.407420 0.594046
vt 0.407420 0.992563
vt 0.407420 0.993799
s 0
usemtl Material
f 2/4/1 3/9/1 1/1/1
f 4/11/2 7/20/2 3/7/2
f 8/24/3 5/14/3 7/19/3
f 6/17/4 1/2/4 5/13/4
f 7/21/5 1/3/5 3/8/5
f 4/12/6 6/18/6 8/22/6
f 2/4/1 4/10/1 3/9/1
f 4/11/2 8/23/2 7/20/2
f 8/24/3 6/16/3 5/14/3
f 6/17/4 2/5/4 1/2/4
f 7/21/5 5/15/5 1/3/5
f 4/12/6 2/6/6 6/18/6
