# Blender 3.5.0
# www.blender.org
mtllib player_Weapon.mtl
o 立方体.003
v -0.351925 5.962166 0.351925
v -0.187575 12.588840 0.187575
v -0.351925 5.962166 -0.351925
v -0.187575 12.588840 -0.187575
v 0.351925 5.962166 0.351925
v 0.187575 12.588840 0.187575
v 0.351925 5.962166 -0.351925
v 0.187575 12.588840 -0.187575
v -0.351925 9.275503 0.351925
v -0.351925 9.275503 -0.351925
v 0.351925 9.275503 -0.351925
v 0.351925 9.275503 0.351925
v -0.351925 7.618834 -0.351925
v 0.351925 7.618834 -0.351925
v 0.351925 7.618834 0.351925
v -0.351925 7.618834 0.351925
v -0.351925 6.790501 -0.351925
v 0.351925 6.790501 -0.351925
v 0.351925 6.790501 0.351925
v -0.351925 6.790501 0.351925
v -0.249694 7.299535 0.249694
v -0.249694 7.299535 -0.249694
v 0.249694 7.299535 -0.249694
v 0.249694 7.299535 0.249694
v -0.249694 7.081393 -0.249694
v 0.249694 7.081393 -0.249694
v 0.249694 7.081393 0.249694
v -0.249694 7.081393 0.249694
v -0.351925 11.922829 0.351925
v -0.351925 11.922829 -0.351925
v 0.351925 11.922829 -0.351925
v 0.351925 11.922829 0.351925
v -0.267313 12.309835 0.267313
v -0.267313 12.309835 -0.267313
v 0.267313 12.309835 -0.267313
v 0.267313 12.309835 0.267313
vn -0.9615 0.2748 -0.0000
vn -0.0000 0.2748 -0.9615
vn 0.9615 0.2748 -0.0000
vn -0.0000 0.2748 0.9615
vn -0.0000 -1.0000 -0.0000
vn -0.0000 1.0000 -0.0000
vn -0.0000 -0.0000 1.0000
vn 1.0000 -0.0000 -0.0000
vn -0.0000 -0.0000 -1.0000
vn -1.0000 -0.0000 -0.0000
vn -0.9524 -0.3049 -0.0000
vn -0.0000 -0.3049 -0.9524
vn 0.9524 -0.3049 -0.0000
vn -0.0000 -0.3049 0.9524
vn -0.9434 0.3316 -0.0000
vn -0.0000 0.3316 -0.9434
vn 0.9434 0.3316 -0.0000
vn -0.0000 0.3316 0.9434
vn -0.0000 0.2136 0.9769
vn 0.9769 0.2136 -0.0000
vn -0.0000 0.2136 -0.9769
vn -0.9769 0.2136 -0.0000
vt 0.966498 0.333333
vt 0.000000 0.666667
vt 0.924832 0.000000
vt 0.255500 0.255500
vt 0.000000 0.333333
vt 0.924832 0.666667
vt 0.966498 0.000000
vt 0.255500 0.077834
vt 0.924832 0.333333
vt 0.333333 0.666667
vt 0.966498 0.333333
vt 0.077834 0.255500
vt 0.966498 0.666667
vt 0.333333 0.333333
vt 0.924832 0.333333
vt 0.077834 0.077834
vt 0.799832 0.333333
vt 0.133165 0.666667
vt 0.349664 1.000000
vt 0.799832 0.000000
vt 0.799832 0.666667
vt 0.349664 0.666667
vt 0.133165 1.000000
vt 0.799832 0.333333
vt 0.432997 1.000000
vt 0.883165 0.000000
vt 0.333333 0.333333
vt 0.883165 0.666667
vt 0.432997 0.666667
vt 0.666667 0.333333
vt 0.216498 1.000000
vt 0.883165 0.333333
vt 0.666667 0.666667
vt 0.883165 0.333333
vt 0.216498 0.666667
vt 0.333333 0.666667
vt 0.883165 0.666667
vt 0.924832 0.000000
vt 0.666667 0.000000
vt 0.924832 0.666667
vt 0.883165 0.333333
vt 0.333333 0.000000
vt 0.883165 0.333333
vt 0.924832 0.333333
vt 0.333333 0.333333
vt 0.883165 0.000000
vt 0.924832 0.333333
vt 0.666667 0.333333
vt 0.381749 0.618251
vt 0.465916 0.666667
vt 0.443970 0.903169
vt 0.381749 0.381749
vt 0.432997 0.903169
vt 0.443970 0.666667
vt 0.618251 0.381749
vt 0.454943 0.903169
vt 0.432997 0.666667
vt 0.618251 0.618251
vt 0.465916 0.903169
vt 0.454943 0.666667
vt 0.443970 0.903169
vt 0.454943 0.666667
vt 0.618251 0.048415
vt 0.465916 0.903169
vt 0.443970 0.666667
vt 0.381749 0.048415
vt 0.476888 0.903169
vt 0.465916 0.666667
vt 0.381749 0.284918
vt 0.454943 0.903169
vt 0.476888 0.666667
vt 0.618251 0.284918
vt 0.000000 0.666667
vt 0.666667 0.333333
vt 0.333333 0.333333
vt 0.216498 1.000000
vt 0.666667 0.000000
vt 0.333333 0.000000
vt 0.666667 0.666667
vt 0.216498 0.666667
vt 0.000000 0.000000
vt 0.000000 1.000000
vt 0.666667 0.333333
vt 0.000000 0.333333
vt 0.293262 0.293262
vt 0.293262 0.040071
vt 0.040071 0.040071
vt 0.040071 0.293262
s 0
usemtl Material
f 33/85/1 4/8/1 34/86/1
f 34/86/2 8/16/2 35/87/2
f 35/87/3 6/12/3 36/88/3
f 36/88/4 2/4/4 33/85/4
f 7/14/5 1/2/5 3/5/5
f 4/8/6 6/12/6 8/16/6
f 12/23/7 16/35/7 15/31/7
f 11/21/8 15/32/8 14/28/8
f 10/19/9 14/29/9 13/25/9
f 9/17/10 13/26/10 16/34/10
f 16/36/11 22/52/11 21/49/11
f 13/27/12 23/55/12 22/52/12
f 14/30/13 24/58/13 23/55/13
f 15/33/14 21/49/14 24/58/14
f 19/43/7 1/3/7 5/9/7
f 18/40/8 5/11/8 7/13/8
f 17/37/9 7/15/9 3/6/9
f 20/47/10 3/7/10 1/1/10
f 24/59/7 28/71/7 27/67/7
f 23/56/8 27/68/8 26/64/8
f 22/53/9 26/65/9 25/61/9
f 21/51/10 25/62/10 28/70/10
f 28/72/15 17/39/15 20/48/15
f 25/63/16 18/42/16 17/39/16
f 26/66/17 19/45/17 18/42/17
f 27/69/18 20/48/18 19/45/18
f 32/82/7 9/18/7 12/23/7
f 31/79/8 12/24/8 11/21/8
f 30/76/9 11/22/9 10/19/9
f 29/74/10 10/20/10 9/17/10
f 36/88/19 29/75/19 32/84/19
f 35/87/20 32/84/20 31/81/20
f 34/86/21 31/81/21 30/78/21
f 33/85/22 30/78/22 29/75/22
f 33/85/1 2/4/1 4/8/1
f 34/86/2 4/8/2 8/16/2
f 35/87/3 8/16/3 6/12/3
f 36/88/4 6/12/4 2/4/4
f 7/14/5 5/10/5 1/2/5
f 4/8/6 2/4/6 6/12/6
f 12/23/7 9/18/7 16/35/7
f 11/21/8 12/24/8 15/32/8
f 10/19/9 11/22/9 14/29/9
f 9/17/10 10/20/10 13/26/10
f 16/36/11 13/27/11 22/52/11
f 13/27/12 14/30/12 23/55/12
f 14/30/13 15/33/13 24/58/13
f 15/33/14 16/36/14 21/49/14
f 19/43/7 20/46/7 1/3/7
f 18/40/8 19/44/8 5/11/8
f 17/37/9 18/41/9 7/15/9
f 20/47/10 17/38/10 3/7/10
f 24/59/7 21/50/7 28/71/7
f 23/56/8 24/60/8 27/68/8
f 22/53/9 23/57/9 26/65/9
f 21/51/10 22/54/10 25/62/10
f 28/72/15 25/63/15 17/39/15
f 25/63/16 26/66/16 18/42/16
f 26/66/17 27/69/17 19/45/17
f 27/69/18 28/72/18 20/48/18
f 32/82/7 29/73/7 9/18/7
f 31/79/8 32/83/8 12/24/8
f 30/76/9 31/80/9 11/22/9
f 29/74/10 30/77/10 10/20/10
f 36/88/19 33/85/19 29/75/19
f 35/87/20 36/88/20 32/84/20
f 34/86/21 35/87/21 31/81/21
f 33/85/22 34/86/22 30/78/22
